<svg xmlns="http://www.w3.org/2000/svg" width="1388" height="1041" version="1.1"><defs><linearGradient id="gr0" x1="0%" x2="100%" y1="0%" y2="100%"><stop offset="0%" stop-color="rgb(204,107,18)"/><stop offset="100%" stop-color="rgb(175,92,15)"/></linearGradient></defs><polygon id="triangle36" points="216,538 245,582 309,471" style="fill: url(#gr0); stroke: rgb(0, 0, 0); stroke-width: 0;"/><defs><linearGradient id="gr1" x1="0%" x2="100%" y1="0%" y2="100%"><stop offset="0%" stop-color="rgb(177,100,28)"/><stop offset="100%" stop-color="rgb(192,104,22)"/></linearGradient></defs><polygon id="triangle36" points="1017,955 1214,889 1057,684" style="fill: url(#gr1); stroke: rgb(0, 0, 0); stroke-width: 0;"/><defs><linearGradient id="gr2" x1="0%" x2="100%" y1="0%" y2="100%"><stop offset="0%" stop-color="rgb(102,53,9)"/><stop offset="100%" stop-color="rgb(204,107,18)"/></linearGradient></defs><polygon id="triangle36" points="104,526 216,538 141,589" style="fill: url(#gr2); stroke: rgb(0, 0, 0); stroke-width: 0;"/><defs><linearGradient id="gr3" x1="0%" x2="100%" y1="0%" y2="100%"><stop offset="0%" stop-color="rgb(204,107,18)"/><stop offset="100%" stop-color="rgb(204,107,18)"/></linearGradient></defs><polygon id="triangle36" points="216,538 245,582 141,589" style="fill: url(#gr3); stroke: rgb(0, 0, 0); stroke-width: 0;"/><defs><linearGradient id="gr4" x1="0%" x2="100%" y1="0%" y2="100%"><stop offset="0%" stop-color="rgb(192,104,22)"/><stop offset="100%" stop-color="rgb(204,107,18)"/></linearGradient></defs><polygon id="triangle36" points="37,864 245,582 141,589" style="fill: url(#gr4); stroke: rgb(0, 0, 0); stroke-width: 0;"/><defs><linearGradient id="gr5" x1="0%" x2="100%" y1="0%" y2="100%"><stop offset="0%" stop-color="rgb(204,107,18)"/><stop offset="100%" stop-color="rgb(107,56,9)"/></linearGradient></defs><polygon id="triangle36" points="245,582 309,471 352,524" style="fill: url(#gr5); stroke: rgb(0, 0, 0); stroke-width: 0;"/><defs><linearGradient id="gr6" x1="0%" x2="100%" y1="0%" y2="100%"><stop offset="0%" stop-color="rgb(204,107,18)"/><stop offset="100%" stop-color="rgb(164,86,14)"/></linearGradient></defs><polygon id="triangle36" points="1057,684 1323,678 1096,589" style="fill: url(#gr6); stroke: rgb(0, 0, 0); stroke-width: 0;"/><defs><linearGradient id="gr7" x1="0%" x2="100%" y1="0%" y2="100%"><stop offset="0%" stop-color="rgb(198,103,17)"/><stop offset="100%" stop-color="rgb(204,107,18)"/></linearGradient></defs><polygon id="triangle36" points="811,508 1057,684 1096,589" style="fill: url(#gr7); stroke: rgb(0, 0, 0); stroke-width: 0;"/><defs><linearGradient id="gr8" x1="0%" x2="100%" y1="0%" y2="100%"><stop offset="0%" stop-color="rgb(198,103,17)"/><stop offset="100%" stop-color="rgb(165,86,14)"/></linearGradient></defs><polygon id="triangle36" points="811,508 960,405 1096,589" style="fill: url(#gr8); stroke: rgb(0, 0, 0); stroke-width: 0;"/><defs><linearGradient id="gr9" x1="0%" x2="100%" y1="0%" y2="100%"><stop offset="0%" stop-color="rgb(146,75,12)"/><stop offset="100%" stop-color="rgb(156,82,13)"/></linearGradient></defs><polygon id="triangle36" points="960,405 1160,446 1096,589" style="fill: url(#gr9); stroke: rgb(0, 0, 0); stroke-width: 0;"/><defs><linearGradient id="gr10" x1="0%" x2="100%" y1="0%" y2="100%"><stop offset="0%" stop-color="rgb(102,53,9)"/><stop offset="100%" stop-color="rgb(202,105,17)"/></linearGradient></defs><polygon id="triangle36" points="104,526 141,589 4,637" style="fill: url(#gr10); stroke: rgb(0, 0, 0); stroke-width: 0;"/><defs><linearGradient id="gr11" x1="0%" x2="100%" y1="0%" y2="100%"><stop offset="0%" stop-color="rgb(192,104,22)"/><stop offset="100%" stop-color="rgb(202,105,17)"/></linearGradient></defs><polygon id="triangle36" points="37,864 141,589 4,637" style="fill: url(#gr11); stroke: rgb(0, 0, 0); stroke-width: 0;"/><defs><linearGradient id="gr12" x1="0%" x2="100%" y1="0%" y2="100%"><stop offset="0%" stop-color="rgb(204,107,18)"/><stop offset="100%" stop-color="rgb(144,75,12)"/></linearGradient></defs><polygon id="triangle36" points="1096,589 1160,446 1209,531" style="fill: url(#gr12); stroke: rgb(0, 0, 0); stroke-width: 0;"/><defs><linearGradient id="gr13" x1="0%" x2="100%" y1="0%" y2="100%"><stop offset="0%" stop-color="rgb(204,107,18)"/><stop offset="100%" stop-color="rgb(152,79,12)"/></linearGradient></defs><polygon id="triangle36" points="1096,589 1323,678 1209,531" style="fill: url(#gr13); stroke: rgb(0, 0, 0); stroke-width: 0;"/><defs><linearGradient id="gr14" x1="0%" x2="100%" y1="0%" y2="100%"><stop offset="0%" stop-color="rgb(162,96,35)"/><stop offset="100%" stop-color="rgb(162,96,35)"/></linearGradient></defs><polygon id="triangle36" points="1017,955 1214,889 1141,1031" style="fill: url(#gr14); stroke: rgb(0, 0, 0); stroke-width: 0;"/><defs><linearGradient id="gr15" x1="0%" x2="100%" y1="0%" y2="100%"><stop offset="0%" stop-color="rgb(170,98,31)"/><stop offset="100%" stop-color="rgb(151,93,39)"/></linearGradient></defs><polygon id="triangle36" points="1214,889 1293,1001 1141,1031" style="fill: url(#gr15); stroke: rgb(0, 0, 0); stroke-width: 0;"/><defs><linearGradient id="gr16" x1="0%" x2="100%" y1="0%" y2="100%"><stop offset="0%" stop-color="rgb(204,107,18)"/><stop offset="100%" stop-color="rgb(129,67,11)"/></linearGradient></defs><polygon id="triangle36" points="245,582 352,524 382,589" style="fill: url(#gr16); stroke: rgb(0, 0, 0); stroke-width: 0;"/><defs><linearGradient id="gr17" x1="0%" x2="100%" y1="0%" y2="100%"><stop offset="0%" stop-color="rgb(204,107,18)"/><stop offset="100%" stop-color="rgb(167,86,14)"/></linearGradient></defs><polygon id="triangle36" points="245,582 421,650 382,589" style="fill: url(#gr17); stroke: rgb(0, 0, 0); stroke-width: 0;"/><defs><linearGradient id="gr18" x1="0%" x2="100%" y1="0%" y2="100%"><stop offset="0%" stop-color="rgb(56,29,4)"/><stop offset="100%" stop-color="rgb(123,63,10)"/></linearGradient></defs><polygon id="triangle36" points="421,650 452,631 382,589" style="fill: url(#gr18); stroke: rgb(0, 0, 0); stroke-width: 0;"/><defs><linearGradient id="gr19" x1="0%" x2="100%" y1="0%" y2="100%"><stop offset="0%" stop-color="rgb(183,101,26)"/><stop offset="100%" stop-color="rgb(204,107,18)"/></linearGradient></defs><polygon id="triangle36" points="1017,955 1057,684 860,716" style="fill: url(#gr19); stroke: rgb(0, 0, 0); stroke-width: 0;"/><defs><linearGradient id="gr20" x1="0%" x2="100%" y1="0%" y2="100%"><stop offset="0%" stop-color="rgb(152,80,13)"/><stop offset="100%" stop-color="rgb(200,104,17)"/></linearGradient></defs><polygon id="triangle36" points="715,516 811,508 860,716" style="fill: url(#gr20); stroke: rgb(0, 0, 0); stroke-width: 0;"/><defs><linearGradient id="gr21" x1="0%" x2="100%" y1="0%" y2="100%"><stop offset="0%" stop-color="rgb(198,103,17)"/><stop offset="100%" stop-color="rgb(204,107,18)"/></linearGradient></defs><polygon id="triangle36" points="811,508 1057,684 860,716" style="fill: url(#gr21); stroke: rgb(0, 0, 0); stroke-width: 0;"/><defs><linearGradient id="gr22" x1="0%" x2="100%" y1="0%" y2="100%"><stop offset="0%" stop-color="rgb(202,106,18)"/><stop offset="100%" stop-color="rgb(190,103,23)"/></linearGradient></defs><polygon id="triangle36" points="1057,684 1214,889 1276,860" style="fill: url(#gr22); stroke: rgb(0, 0, 0); stroke-width: 0;"/><defs><linearGradient id="gr23" x1="0%" x2="100%" y1="0%" y2="100%"><stop offset="0%" stop-color="rgb(204,107,18)"/><stop offset="100%" stop-color="rgb(158,84,16)"/></linearGradient></defs><polygon id="triangle36" points="1057,684 1323,678 1276,860" style="fill: url(#gr23); stroke: rgb(0, 0, 0); stroke-width: 0;"/><defs><linearGradient id="gr24" x1="0%" x2="100%" y1="0%" y2="100%"><stop offset="0%" stop-color="rgb(177,100,28)"/><stop offset="100%" stop-color="rgb(171,98,31)"/></linearGradient></defs><polygon id="triangle36" points="1214,889 1293,1001 1276,860" style="fill: url(#gr24); stroke: rgb(0, 0, 0); stroke-width: 0;"/><defs><linearGradient id="gr25" x1="0%" x2="100%" y1="0%" y2="100%"><stop offset="0%" stop-color="rgb(145,91,42)"/><stop offset="100%" stop-color="rgb(156,94,37)"/></linearGradient></defs><polygon id="triangle36" points="22,1024 37,864 5,1032" style="fill: url(#gr25); stroke: rgb(0, 0, 0); stroke-width: 0;"/><defs><linearGradient id="gr26" x1="0%" x2="100%" y1="0%" y2="100%"><stop offset="0%" stop-color="rgb(192,102,21)"/><stop offset="100%" stop-color="rgb(167,97,32)"/></linearGradient></defs><polygon id="triangle36" points="4,637 37,864 5,1032" style="fill: url(#gr26); stroke: rgb(0, 0, 0); stroke-width: 0;"/><defs><linearGradient id="gr27" x1="0%" x2="100%" y1="0%" y2="100%"><stop offset="0%" stop-color="rgb(147,92,41)"/><stop offset="100%" stop-color="rgb(161,95,35)"/></linearGradient></defs><polygon id="triangle36" points="22,1024 37,864 157,991" style="fill: url(#gr27); stroke: rgb(0, 0, 0); stroke-width: 0;"/><defs><linearGradient id="gr28" x1="0%" x2="100%" y1="0%" y2="100%"><stop offset="0%" stop-color="rgb(188,103,24)"/><stop offset="100%" stop-color="rgb(182,101,26)"/></linearGradient></defs><polygon id="triangle36" points="37,864 245,582 157,991" style="fill: url(#gr28); stroke: rgb(0, 0, 0); stroke-width: 0;"/><defs><linearGradient id="gr29" x1="0%" x2="100%" y1="0%" y2="100%"><stop offset="0%" stop-color="rgb(138,90,45)"/><stop offset="100%" stop-color="rgb(142,91,43)"/></linearGradient></defs><polygon id="triangle36" points="5,1032 22,1024 157,991" style="fill: url(#gr29); stroke: rgb(0, 0, 0); stroke-width: 0;"/><defs><linearGradient id="gr30" x1="0%" x2="100%" y1="0%" y2="100%"><stop offset="0%" stop-color="rgb(102,53,9)"/><stop offset="100%" stop-color="rgb(199,103,17)"/></linearGradient></defs><polygon id="triangle36" points="104,526 216,538 213,514" style="fill: url(#gr30); stroke: rgb(0, 0, 0); stroke-width: 0;"/><defs><linearGradient id="gr31" x1="0%" x2="100%" y1="0%" y2="100%"><stop offset="0%" stop-color="rgb(0,0,0)"/><stop offset="100%" stop-color="rgb(102,53,8)"/></linearGradient></defs><polygon id="triangle36" points="104,526 309,471 213,514" style="fill: url(#gr31); stroke: rgb(0, 0, 0); stroke-width: 0;"/><defs><linearGradient id="gr32" x1="0%" x2="100%" y1="0%" y2="100%"><stop offset="0%" stop-color="rgb(204,107,18)"/><stop offset="100%" stop-color="rgb(170,88,14)"/></linearGradient></defs><polygon id="triangle36" points="216,538 309,471 213,514" style="fill: url(#gr32); stroke: rgb(0, 0, 0); stroke-width: 0;"/><defs><linearGradient id="gr33" x1="0%" x2="100%" y1="0%" y2="100%"><stop offset="0%" stop-color="rgb(152,80,13)"/><stop offset="100%" stop-color="rgb(194,101,17)"/></linearGradient></defs><polygon id="triangle36" points="715,516 860,716 621,581" style="fill: url(#gr33); stroke: rgb(0, 0, 0); stroke-width: 0;"/><defs><linearGradient id="gr34" x1="0%" x2="100%" y1="0%" y2="100%"><stop offset="0%" stop-color="rgb(59,31,5)"/><stop offset="100%" stop-color="rgb(0,0,0)"/></linearGradient></defs><polygon id="triangle36" points="309,471 352,524 540,526" style="fill: url(#gr34); stroke: rgb(0, 0, 0); stroke-width: 0;"/><defs><linearGradient id="gr35" x1="0%" x2="100%" y1="0%" y2="100%"><stop offset="0%" stop-color="rgb(87,45,7)"/><stop offset="100%" stop-color="rgb(33,17,2)"/></linearGradient></defs><polygon id="triangle36" points="621,581 715,516 540,526" style="fill: url(#gr35); stroke: rgb(0, 0, 0); stroke-width: 0;"/><defs><linearGradient id="gr36" x1="0%" x2="100%" y1="0%" y2="100%"><stop offset="0%" stop-color="rgb(0,0,0)"/><stop offset="100%" stop-color="rgb(39,20,3)"/></linearGradient></defs><polygon id="triangle36" points="104,526 309,471 653,337" style="fill: url(#gr36); stroke: rgb(0, 0, 0); stroke-width: 0;"/><defs><linearGradient id="gr37" x1="0%" x2="100%" y1="0%" y2="100%"><stop offset="0%" stop-color="rgb(59,31,5)"/><stop offset="100%" stop-color="rgb(0,0,0)"/></linearGradient></defs><polygon id="triangle36" points="309,471 540,526 653,337" style="fill: url(#gr37); stroke: rgb(0, 0, 0); stroke-width: 0;"/><defs><linearGradient id="gr38" x1="0%" x2="100%" y1="0%" y2="100%"><stop offset="0%" stop-color="rgb(0,0,0)"/><stop offset="100%" stop-color="rgb(33,17,2)"/></linearGradient></defs><polygon id="triangle36" points="540,526 715,516 653,337" style="fill: url(#gr38); stroke: rgb(0, 0, 0); stroke-width: 0;"/><defs><linearGradient id="gr39" x1="0%" x2="100%" y1="0%" y2="100%"><stop offset="0%" stop-color="rgb(50,26,4)"/><stop offset="100%" stop-color="rgb(64,33,5)"/></linearGradient></defs><polygon id="triangle36" points="715,516 811,508 653,337" style="fill: url(#gr39); stroke: rgb(0, 0, 0); stroke-width: 0;"/><defs><linearGradient id="gr40" x1="0%" x2="100%" y1="0%" y2="100%"><stop offset="0%" stop-color="rgb(96,50,8)"/><stop offset="100%" stop-color="rgb(29,14,2)"/></linearGradient></defs><polygon id="triangle36" points="811,508 960,405 653,337" style="fill: url(#gr40); stroke: rgb(0, 0, 0); stroke-width: 0;"/><defs><linearGradient id="gr41" x1="0%" x2="100%" y1="0%" y2="100%"><stop offset="0%" stop-color="rgb(44,22,3)"/><stop offset="100%" stop-color="rgb(20,10,1)"/></linearGradient></defs><polygon id="triangle36" points="960,405 1160,446 653,337" style="fill: url(#gr41); stroke: rgb(0, 0, 0); stroke-width: 0;"/><defs><linearGradient id="gr42" x1="0%" x2="100%" y1="0%" y2="100%"><stop offset="0%" stop-color="rgb(195,102,17)"/><stop offset="100%" stop-color="rgb(137,71,11)"/></linearGradient></defs><polygon id="triangle36" points="452,631 621,581 525,572" style="fill: url(#gr42); stroke: rgb(0, 0, 0); stroke-width: 0;"/><defs><linearGradient id="gr43" x1="0%" x2="100%" y1="0%" y2="100%"><stop offset="0%" stop-color="rgb(0,0,0)"/><stop offset="100%" stop-color="rgb(69,36,5)"/></linearGradient></defs><polygon id="triangle36" points="540,526 621,581 525,572" style="fill: url(#gr43); stroke: rgb(0, 0, 0); stroke-width: 0;"/><defs><linearGradient id="gr44" x1="0%" x2="100%" y1="0%" y2="100%"><stop offset="0%" stop-color="rgb(0,0,0)"/><stop offset="100%" stop-color="rgb(61,31,5)"/></linearGradient></defs><polygon id="triangle36" points="352,524 382,589 512,557" style="fill: url(#gr44); stroke: rgb(0, 0, 0); stroke-width: 0;"/><defs><linearGradient id="gr45" x1="0%" x2="100%" y1="0%" y2="100%"><stop offset="0%" stop-color="rgb(0,0,0)"/><stop offset="100%" stop-color="rgb(0,0,0)"/></linearGradient></defs><polygon id="triangle36" points="352,524 540,526 512,557" style="fill: url(#gr45); stroke: rgb(0, 0, 0); stroke-width: 0;"/><defs><linearGradient id="gr46" x1="0%" x2="100%" y1="0%" y2="100%"><stop offset="0%" stop-color="rgb(92,47,7)"/><stop offset="100%" stop-color="rgb(62,32,5)"/></linearGradient></defs><polygon id="triangle36" points="382,589 452,631 512,557" style="fill: url(#gr46); stroke: rgb(0, 0, 0); stroke-width: 0;"/><defs><linearGradient id="gr47" x1="0%" x2="100%" y1="0%" y2="100%"><stop offset="0%" stop-color="rgb(93,48,8)"/><stop offset="100%" stop-color="rgb(11,5,0)"/></linearGradient></defs><polygon id="triangle36" points="452,631 525,572 512,557" style="fill: url(#gr47); stroke: rgb(0, 0, 0); stroke-width: 0;"/><defs><linearGradient id="gr48" x1="0%" x2="100%" y1="0%" y2="100%"><stop offset="0%" stop-color="rgb(16,8,1)"/><stop offset="100%" stop-color="rgb(0,0,0)"/></linearGradient></defs><polygon id="triangle36" points="525,572 540,526 512,557" style="fill: url(#gr48); stroke: rgb(0, 0, 0); stroke-width: 0;"/><defs><linearGradient id="gr49" x1="0%" x2="100%" y1="0%" y2="100%"><stop offset="0%" stop-color="rgb(145,91,42)"/><stop offset="100%" stop-color="rgb(148,92,40)"/></linearGradient></defs><polygon id="triangle36" points="1141,1031 1293,1001 1384,1030" style="fill: url(#gr49); stroke: rgb(0, 0, 0); stroke-width: 0;"/><defs><linearGradient id="gr50" x1="0%" x2="100%" y1="0%" y2="100%"><stop offset="0%" stop-color="rgb(30,16,2)"/><stop offset="100%" stop-color="rgb(86,44,6)"/></linearGradient></defs><polygon id="triangle36" points="1160,446 1209,531 1383,640" style="fill: url(#gr50); stroke: rgb(0, 0, 0); stroke-width: 0;"/><defs><linearGradient id="gr51" x1="0%" x2="100%" y1="0%" y2="100%"><stop offset="0%" stop-color="rgb(84,44,7)"/><stop offset="100%" stop-color="rgb(57,30,4)"/></linearGradient></defs><polygon id="triangle36" points="1209,531 1323,678 1383,640" style="fill: url(#gr51); stroke: rgb(0, 0, 0); stroke-width: 0;"/><defs><linearGradient id="gr52" x1="0%" x2="100%" y1="0%" y2="100%"><stop offset="0%" stop-color="rgb(184,102,26)"/><stop offset="100%" stop-color="rgb(176,99,29)"/></linearGradient></defs><polygon id="triangle36" points="1276,860 1293,1001 1376,825" style="fill: url(#gr52); stroke: rgb(0, 0, 0); stroke-width: 0;"/><defs><linearGradient id="gr53" x1="0%" x2="100%" y1="0%" y2="100%"><stop offset="0%" stop-color="rgb(196,105,21)"/><stop offset="100%" stop-color="rgb(162,85,14)"/></linearGradient></defs><polygon id="triangle36" points="1276,860 1323,678 1376,825" style="fill: url(#gr53); stroke: rgb(0, 0, 0); stroke-width: 0;"/><defs><linearGradient id="gr54" x1="0%" x2="100%" y1="0%" y2="100%"><stop offset="0%" stop-color="rgb(158,95,36)"/><stop offset="100%" stop-color="rgb(169,97,32)"/></linearGradient></defs><polygon id="triangle36" points="1293,1001 1384,1030 1376,825" style="fill: url(#gr54); stroke: rgb(0, 0, 0); stroke-width: 0;"/><defs><linearGradient id="gr55" x1="0%" x2="100%" y1="0%" y2="100%"><stop offset="0%" stop-color="rgb(144,75,12)"/><stop offset="100%" stop-color="rgb(163,86,14)"/></linearGradient></defs><polygon id="triangle36" points="1323,678 1383,640 1376,825" style="fill: url(#gr55); stroke: rgb(0, 0, 0); stroke-width: 0;"/><defs><linearGradient id="gr56" x1="0%" x2="100%" y1="0%" y2="100%"><stop offset="0%" stop-color="rgb(143,75,13)"/><stop offset="100%" stop-color="rgb(180,100,27)"/></linearGradient></defs><polygon id="triangle36" points="1383,640 1384,1030 1376,825" style="fill: url(#gr56); stroke: rgb(0, 0, 0); stroke-width: 0;"/><defs><linearGradient id="gr57" x1="0%" x2="100%" y1="0%" y2="100%"><stop offset="0%" stop-color="rgb(158,95,36)"/><stop offset="100%" stop-color="rgb(151,93,39)"/></linearGradient></defs><polygon id="triangle36" points="1017,955 1141,1031 625,967" style="fill: url(#gr57); stroke: rgb(0, 0, 0); stroke-width: 0;"/><defs><linearGradient id="gr58" x1="0%" x2="100%" y1="0%" y2="100%"><stop offset="0%" stop-color="rgb(158,83,13)"/><stop offset="100%" stop-color="rgb(182,99,23)"/></linearGradient></defs><polygon id="triangle36" points="421,650 452,631 625,967" style="fill: url(#gr58); stroke: rgb(0, 0, 0); stroke-width: 0;"/><defs><linearGradient id="gr59" x1="0%" x2="100%" y1="0%" y2="100%"><stop offset="0%" stop-color="rgb(195,102,17)"/><stop offset="100%" stop-color="rgb(178,97,23)"/></linearGradient></defs><polygon id="triangle36" points="452,631 621,581 625,967" style="fill: url(#gr59); stroke: rgb(0, 0, 0); stroke-width: 0;"/><defs><linearGradient id="gr60" x1="0%" x2="100%" y1="0%" y2="100%"><stop offset="0%" stop-color="rgb(189,99,16)"/><stop offset="100%" stop-color="rgb(188,103,24)"/></linearGradient></defs><polygon id="triangle36" points="621,581 860,716 625,967" style="fill: url(#gr60); stroke: rgb(0, 0, 0); stroke-width: 0;"/><defs><linearGradient id="gr61" x1="0%" x2="100%" y1="0%" y2="100%"><stop offset="0%" stop-color="rgb(192,104,22)"/><stop offset="100%" stop-color="rgb(166,97,33)"/></linearGradient></defs><polygon id="triangle36" points="860,716 1017,955 625,967" style="fill: url(#gr61); stroke: rgb(0, 0, 0); stroke-width: 0;"/><defs><linearGradient id="gr62" x1="0%" x2="100%" y1="0%" y2="100%"><stop offset="0%" stop-color="rgb(166,97,33)"/><stop offset="100%" stop-color="rgb(180,101,27)"/></linearGradient></defs><polygon id="triangle36" points="157,991 245,582 371,978" style="fill: url(#gr62); stroke: rgb(0, 0, 0); stroke-width: 0;"/><defs><linearGradient id="gr63" x1="0%" x2="100%" y1="0%" y2="100%"><stop offset="0%" stop-color="rgb(204,107,18)"/><stop offset="100%" stop-color="rgb(156,86,22)"/></linearGradient></defs><polygon id="triangle36" points="245,582 421,650 371,978" style="fill: url(#gr63); stroke: rgb(0, 0, 0); stroke-width: 0;"/><defs><linearGradient id="gr64" x1="0%" x2="100%" y1="0%" y2="100%"><stop offset="0%" stop-color="rgb(148,80,17)"/><stop offset="100%" stop-color="rgb(164,96,34)"/></linearGradient></defs><polygon id="triangle36" points="421,650 625,967 371,978" style="fill: url(#gr64); stroke: rgb(0, 0, 0); stroke-width: 0;"/><defs><linearGradient id="gr65" x1="0%" x2="100%" y1="0%" y2="100%"><stop offset="0%" stop-color="rgb(140,90,44)"/><stop offset="100%" stop-color="rgb(146,92,41)"/></linearGradient></defs><polygon id="triangle36" points="5,1032 1141,1031 371,978" style="fill: url(#gr65); stroke: rgb(0, 0, 0); stroke-width: 0;"/><defs><linearGradient id="gr66" x1="0%" x2="100%" y1="0%" y2="100%"><stop offset="0%" stop-color="rgb(141,90,44)"/><stop offset="100%" stop-color="rgb(149,92,40)"/></linearGradient></defs><polygon id="triangle36" points="5,1032 157,991 371,978" style="fill: url(#gr66); stroke: rgb(0, 0, 0); stroke-width: 0;"/><defs><linearGradient id="gr67" x1="0%" x2="100%" y1="0%" y2="100%"><stop offset="0%" stop-color="rgb(154,94,38)"/><stop offset="100%" stop-color="rgb(149,92,40)"/></linearGradient></defs><polygon id="triangle36" points="625,967 1141,1031 371,978" style="fill: url(#gr67); stroke: rgb(0, 0, 0); stroke-width: 0;"/></svg>